<svg xmlns="http://www.w3.org/2000/svg" width="70" height="60" viewBox="0 0 70 60" fill="none">
<path d="M35 20C29.5 20 25 24.5 25 30C25 35.5 29.5 40 35 40C40.5 40 45 35.5 45 30C45 24.5 40.5 20 35 20ZM35 38.75C30.1875 38.75 26.25 34.8125 26.25 30C26.25 25.1875 30.1875 21.25 35 21.25C39.8125 21.25 43.75 25.1875 43.75 30C43.75 34.8125 39.8125 38.75 35 38.75Z" fill="currentColor"/>
<path d="M32.2651 28.1944C32.1613 28.2784 32.1 28.4024 32.1 28.5347V31.467C32.1 31.5988 32.1611 31.7223 32.2644 31.806C32.4077 31.9221 32.6093 31.9446 32.7764 31.8651L35.2423 30.6912C35.262 30.6818 35.2812 30.6717 35.2999 30.661V31.467C35.2999 31.5988 35.3611 31.7223 35.4644 31.806C35.6076 31.9221 35.8093 31.9446 35.9763 31.8651L38.4422 30.6912C38.7205 30.5587 38.8999 30.288 38.8999 29.9882C38.8999 29.686 38.7179 29.4138 38.4365 29.2824L35.9757 28.1335C35.8086 28.0555 35.6078 28.0787 35.465 28.1944C35.3613 28.2784 35.2999 28.4024 35.2999 28.5347V29.3154C35.2794 29.3036 35.2583 29.2926 35.2365 29.2824L32.7758 28.1335C32.6086 28.0555 32.4079 28.0787 32.2651 28.1944ZM32.823 28.9851L34.9617 29.9863L32.823 30.9875V28.9851ZM38.1617 29.9863L36.023 30.9875V29.9863V28.9851L38.1617 29.9863Z" fill="currentColor" stroke="currentColor" stroke-width="0.2"/>
</svg>