<svg xmlns="http://www.w3.org/2000/svg" width="16" height="16" viewBox="0 0 16 16" fill="none">
  <path d="M11.3233 4.47667L6.39524 9.40478L4.43906 7.44858L3.46097 8.42668L6.35763 11.3234L12.2638 5.41715L11.3233 4.47667Z" fill="#1390E5"/>
  <path d="M7.90002 0.865242C11.7748 0.865242 14.9348 4.02525 14.9348 7.90002C14.9348 11.7748 11.7748 14.9348 7.90002 14.9348C4.02525 14.9348 0.865259 11.7748 0.865259 7.90002C0.865259 4.02525 4.02525 0.865242 7.90002 0.865242ZM7.90002 0C3.5362 0 0 3.5362 0 7.90002C0 12.2638 3.5362 15.8 7.90002 15.8C12.2638 15.8 15.8 12.2638 15.8 7.90002C15.8 3.5362 12.2638 0 7.90002 0Z" fill="#1390E5"/>
</svg>