<svg xmlns="http://www.w3.org/2000/svg" width="26" height="18" viewBox="0 0 26 18" fill="none">
  <path d="M2.05833 10.224L0.270833 12.7156L2.05833 14.0698L3.84582 11.5781C4.76665 12.1198 5.74165 12.6073 6.71665 12.9865L5.79581 15.9115L7.85417 16.6156L8.77497 13.6906C9.85831 13.9615 10.9416 14.124 12.025 14.2323V17.3198H14.1916V14.2323C15.275 14.1781 16.3583 14.0156 17.4416 13.6906L18.3625 16.6156L20.4208 15.9115L19.3917 12.9323C20.4208 12.5531 21.3958 12.0115 22.2625 11.4156L24.05 14.0156L25.8375 12.7156L24.05 10.224C24.7541 9.62813 25.4042 8.97812 26 8.27396L24.375 6.81146C19.0125 13.0948 9.58749 13.8531 3.30415 8.49063C2.70832 8.00313 2.16667 7.40729 1.625 6.81146L0 8.27396C0.704167 8.97812 1.35416 9.62813 2.05833 10.224ZM20.6916 4.21146L21.775 2.31562C16.4125 -0.771875 9.80414 -0.771875 4.44164 2.31562L5.52497 4.21146C10.2375 1.50312 15.9791 1.50312 20.6916 4.21146Z" fill="#676868"/>
</svg>