<svg width="280" height="64" viewBox="0 0 280 64" fill="none" xmlns="http://www.w3.org/2000/svg">
<path fill-rule="evenodd" clip-rule="evenodd" d="M74.4891 31.3112L49.3172 43.7453V56.9329L74.4891 44.4989V31.3112Z" fill="#1390E5"/>
<path fill-rule="evenodd" clip-rule="evenodd" d="M49.3172 18.8771L74.4891 31.3112V44.4989L49.3172 32.0648V18.8771Z" fill="#1180CB"/>
<path fill-rule="evenodd" clip-rule="evenodd" d="M74.4891 6.44302L49.3172 18.8771V32.0648L74.4891 19.6307V6.44302Z" fill="#35A2EC"/>
<path d="M36.8077 25.471L36.6552 25.1319L87.5711 0L87.7237 0.339109L36.8077 25.471Z" fill="url(#paint0_linear_2867_1410)"/>
<path d="M36.8077 38.2444L36.6552 37.9053L87.5711 12.7357L87.7237 13.0748L36.8077 38.2444Z" fill="url(#paint1_linear_2867_1410)"/>
<path d="M36.8077 50.3392L36.6552 50.0001L87.5711 24.8682L87.7237 25.1696L36.8077 50.3392Z" fill="url(#paint2_linear_2867_1410)"/>
<path d="M36.8077 63.0748L36.6552 62.7734L87.5711 37.6414L87.7237 37.9429L36.8077 63.0748Z" fill="url(#paint3_linear_2867_1410)"/>
<path fill-rule="evenodd" clip-rule="evenodd" d="M99.1273 43.7453C104.238 43.7453 107.861 41.1077 107.861 36.6239C107.861 31.7257 103.857 30.4823 100.31 29.4272C96.6482 28.3345 96.0761 27.6186 96.0761 26.5636C96.0761 25.6217 96.9152 24.7927 98.5933 24.7927C100.729 24.7927 101.835 25.81 102.636 27.4679L107.175 24.8681C105.458 21.4393 102.445 19.6307 98.5933 19.6307C94.5505 19.6307 90.6985 22.2305 90.6985 26.6767C90.6985 31.1228 94.131 32.7807 97.6017 33.7227C101.111 34.6646 102.445 35.2298 102.445 36.6616C102.445 37.5659 101.797 38.5456 99.2417 38.5456C96.6101 38.5456 95.1608 37.2645 94.3217 35.3429L89.7068 37.9804C91.0417 41.4092 94.2073 43.7453 99.1273 43.7453ZM116.176 20.0828V43.2554H121.553V20.0828H116.176ZM146.306 31.2735C148.06 32.3662 149.204 34.1371 149.204 36.5109C149.204 40.6179 145.81 43.2931 141.614 43.2931H131.775V20.1205H140.966C145.047 20.1205 148.365 22.7204 148.365 26.752C148.365 28.636 147.602 30.1808 146.306 31.2735ZM140.928 25.0565H137.114V29.1635H140.928C142.148 29.1635 142.987 28.2969 142.987 27.0911C142.987 25.8854 142.187 25.0565 140.928 25.0565ZM141.614 38.3195C142.949 38.3195 143.827 37.3775 143.827 36.0964C143.827 34.8153 142.949 33.8734 141.614 33.8734H137.114V38.3195H141.614ZM166.405 20.0828C172.889 20.0828 177.809 25.1318 177.809 31.688C177.809 38.2441 172.889 43.2931 166.405 43.2931H157.023V20.1205H166.405V20.0828ZM166.405 38.1688C170.105 38.1688 172.66 35.6443 172.66 31.688C172.66 27.7317 170.105 25.2072 166.405 25.2072H162.4V38.2065H166.405V38.1688ZM189.517 38.1688V34.0618H197.908V29.0505H189.517V25.2072H198.747V20.1205H184.178V43.2931H198.938V38.2065H189.517V38.1688ZM213.545 43.2931H220.372L228 20.1205H222.127L216.94 37.1891L211.753 20.1205H205.879L213.545 43.2931Z" fill="#1390E5"/>
<defs>
<linearGradient id="paint0_linear_2867_1410" x1="87.7718" y1="0.101058" x2="67.708" y2="40.7311" gradientUnits="userSpaceOnUse">
<stop stop-color="#35A2EC" stop-opacity="0"/>
<stop offset="0.5066" stop-color="#35A2EC"/>
<stop offset="1" stop-color="#35A2EC" stop-opacity="0"/>
</linearGradient>
<linearGradient id="paint1_linear_2867_1410" x1="87.7871" y1="12.8416" x2="67.694" y2="53.5066" gradientUnits="userSpaceOnUse">
<stop stop-color="#35A2EC" stop-opacity="0"/>
<stop offset="0.5066" stop-color="#35A2EC"/>
<stop offset="1" stop-color="#35A2EC" stop-opacity="0"/>
</linearGradient>
<linearGradient id="paint2_linear_2867_1410" x1="87.7515" y1="24.9576" x2="67.6683" y2="65.5924" gradientUnits="userSpaceOnUse">
<stop stop-color="#35A2EC" stop-opacity="0"/>
<stop offset="0.5066" stop-color="#1390E5"/>
<stop offset="1" stop-color="#35A2EC" stop-opacity="0"/>
</linearGradient>
<linearGradient id="paint3_linear_2867_1410" x1="87.7617" y1="37.7351" x2="67.7223" y2="78.3338" gradientUnits="userSpaceOnUse">
<stop stop-color="#35A2EC" stop-opacity="0"/>
<stop offset="0.5066" stop-color="#1390E5"/>
<stop offset="1" stop-color="#35A2EC" stop-opacity="0"/>
</linearGradient>
</defs>
</svg>
